Coordinates
version=1
nRows=20
nColumns=17
inDegrees=yes

Units are S.I. units (second, meters, Newtons, ...)
If the header above contains a line with 'inDegrees', this indicates whether rotational values are in degrees (yes) or radians (no).

endheader
time	bJoint_3	seatpos	hipangle	kneeangle	footangle	lbackangle	uarmleft_up	uarmleft_out	uarmleft_trn	se_inout	se_updown	uarmright_up	uarmright_out	uarmright_trn	pe_inout	pe_updown
      0.00000000	     -0.00001225	     -0.65657984	     23.53655981	    145.01573868	     78.55229849	     11.44940930	    -12.32438203	    -44.73254116	     -6.20365433	     -0.10580891	     -0.01452687	    -12.32312533	    -44.74627516	     -7.67206024	     -0.13453742	     -0.00962991
      0.00500000	     -0.00001168	     -0.65641589	     23.54415288	    144.99511227	     78.53926515	     11.42161890	    -12.27076260	    -44.66978318	     -6.20254953	     -0.05520588	     -0.06692435	    -12.26934085	    -44.67648916	     -7.67100408	     -0.07418892	     -0.06430379
      0.01000000	     -0.00001291	     -0.65576005	     23.57460509	    144.91257339	     78.48717848	     11.43330754	    -12.25326259	    -44.48130926	     -6.19806726	      0.06722113	     -0.18871028	    -12.25074722	    -44.49132136	     -7.66638679	      0.05837900	     -0.19286659
      0.01500000	     -0.00001283	     -0.65541584	     23.59063024	    144.86923564	     78.45986588	     11.39573246	    -12.20912797	    -44.45067597	     -6.19692213	      0.05091762	     -0.19404211	    -12.20431702	    -44.45043130	     -7.66529496	      0.04453650	     -0.20037486
      0.02000000	     -0.00000604	     -0.65448851	     23.63386250	    144.75245605	     78.38631855	     11.41049204	    -12.25903848	    -44.34337988	     -6.19540011	      0.00162086	     -0.21311166	    -12.25250026	    -44.34515743	     -7.66375644	     -0.00311343	     -0.22070348
      0.02500000	     -0.00002325	     -0.65368009	     23.67167191	    144.65060133	     78.32227324	     11.43132176	    -12.27535958	    -44.39160299	     -6.19372940	     -0.02138298	     -0.20766481	    -12.26774784	    -44.39278593	     -7.66211188	     -0.02562391	     -0.21620545
      0.03000000	     -0.00002056	     -0.65324470	     23.69213186	    144.59570563	     78.28783749	     11.39269119	    -12.38127921	    -44.18201943	     -6.19298117	      0.12746105	      0.01429910	    -12.37692044	    -44.17828814	     -7.66078107	      0.13450188	      0.00229690
      0.03500000	     -0.00001161	     -0.65228918	     23.73704902	    144.47522186	     78.21227087	     11.38283880	    -12.33083863	    -44.09226463	     -6.19212699	      0.02363199	     -0.10212311	    -12.32703061	    -44.08931414	     -7.65985158	      0.02584175	     -0.10835388
      0.04000000	     -0.00000855	     -0.65147667	     23.77536288	    144.37271974	     78.14808262	     11.39599704	    -12.34412876	    -43.96547625	     -6.19094112	      0.13058372	     -0.18650320	    -12.33939388	    -43.96146609	     -7.65859151	      0.13246650	     -0.19593908
      0.04500000	     -0.00001070	     -0.65045013	     23.82392438	    144.24315219	     78.06707657	     11.39048161	    -12.34005350	    -43.86208100	     -6.18989766	      0.06563574	     -0.23775131	    -12.33386834	    -43.85823559	     -7.65746647	      0.06545024	     -0.24715997
      0.05000000	     -0.00001542	     -0.64951401	     23.86832295	    144.12494731	     77.99327027	     11.38625823	    -12.36929371	    -43.76530937	     -6.18876541	      0.08749932	     -0.20110607	    -12.36243724	    -43.76442567	     -7.65636188	      0.08987671	     -0.21274718
      0.05500000	     -0.00001026	     -0.64849059	     23.91710072	    143.99561649	     77.91271722	     11.36925621	    -12.36242690	    -43.59846968	     -6.18783351	      0.09965545	     -0.23433898	    -12.35525337	    -43.59400950	     -7.65535832	      0.09997239	     -0.24643625
      0.06000000	     -0.00001494	     -0.64674877	     24.00044368	    143.77535956	     77.77580324	     11.42379054	    -12.46520209	    -43.51282838	     -6.18663083	     -0.01135658	     -0.28407478	    -12.45609849	    -43.50989469	     -7.65402698	     -0.01505605	     -0.29508180
      0.06500000	     -0.00001648	     -0.64578675	     24.04668214	    143.65361794	     77.70030008	     11.40935606	    -12.48774206	    -43.33840486	     -6.18586046	      0.11991600	     -0.24600873	    -12.47894550	    -43.33407676	     -7.65320669	      0.11881377	     -0.26053690
      0.07000000	     -0.00001191	     -0.64454771	     24.10644988	    143.49672555	     77.60317543	     11.38475403	    -12.50479788	    -43.18740061	     -6.18501341	      0.08846228	     -0.23554728	    -12.49638750	    -43.18345857	     -7.65228542	      0.08804837	     -0.24915201
      0.07500000	     -0.00001112	     -0.64346535	     24.15885607	    143.35958493	     77.51844100	     11.37341499	    -12.53728317	    -43.02760238	     -6.18375538	      0.07672847	     -0.22032915	    -12.52871495	    -43.02201224	     -7.65100594	      0.07579165	     -0.23440034
      0.08000000	     -0.00001117	     -0.64172308	     24.24359502	    143.13865804	     77.38225306	     11.37257438	    -12.55589408	    -42.80115667	     -6.18290797	      0.10603187	     -0.24653058	    -12.54729646	    -42.79698999	     -7.65006594	      0.10559449	     -0.26100450
      0.08500000	     -0.00001148	     -0.64046813	     24.30491973	    142.97939466	     77.28431439	     11.35091908	    -12.56269206	    -42.66777813	     -6.18199216	      0.03461002	     -0.25867324	    -12.55376716	    -42.66463325	     -7.64905963	      0.03250400	     -0.27158215
      0.09000000	     -0.00001062	     -0.63855213	     24.39900728	    142.73602537	     77.13503265	     11.37046261	    -12.63691508	    -42.46719791	     -6.18121075	      0.02527149	     -0.30216334	    -12.62677320	    -42.46472586	     -7.64817093	      0.02067197	     -0.31610304
      0.09500000	     -0.00000072	     -0.63745192	     24.45325961	    142.59617202	     77.04943163	     11.31900013	    -12.59936557	    -42.24057818	     -6.18013239	      0.05723738	     -0.26764279	    -12.58947120	    -42.23954091	     -7.64708185	      0.05411234	     -0.28306449
